<?xml version="1.0" encoding="UTF-8"?><svg version="1.1" width="48px" height="48px" viewBox="0 0 48.0 48.0" xmlns="http://www.w3.org/2000/svg" xmlns:xlink="http://www.w3.org/1999/xlink"><defs><clipPath id="i0"><path d="M48,0 L48,48 L0,48 L0,0 L48,0 Z"></path></clipPath><clipPath id="i1"><path d="M26,38 L26,42 L14,42 L14,38 L26,38 Z M20,0 C28.836556,0 36,7.163444 36,16 L36,30 L40,30 L40,34 L0,34 L0,30 L4,30 L4,16 C4,7.163444 11.163444,0 20,0 Z"></path></clipPath></defs><g clip-path="url(#i0)"><g transform="translate(4.0 4.0)"><g clip-path="url(#i1)"><polygon points="0,0 40,0 40,42 0,42 0,0" stroke="none" fill="#FFBD70"></polygon></g></g></g></svg>