<?xml version="1.0" encoding="UTF-8"?>
<svg width="17px" height="15px" viewBox="0 0 17 15" version="1.1" xmlns="http://www.w3.org/2000/svg" xmlns:xlink="http://www.w3.org/1999/xlink">
    <title>icon/皮肤</title>
    <g id="皮肤" stroke="none" stroke-width="1" fill="none" fill-rule="evenodd">
        <g id="皮肤-浅白" transform="translate(-1294.000000, -17.000000)">
            <g id="icon/皮肤" transform="translate(1293.000000, 15.000000)">
                <polygon id="路径" points="0 0 18 0 18 18 0 18"></polygon>
                <path d="M5.02495659,2.5 C5.09705591,2.5 5.16659243,2.52745208 5.21781831,2.57779792 L7.36454953,4.68611423 L11.6354505,4.68611423 L13.7823117,2.57767024 C14.0471427,2.5 14.1166793,2.52745208 14.1679315,2.57782383 L17.4248699,5.77600736 C17.4744104,5.82465741 17.5,5.88820208 17.5,5.95216919 C17.5,6.01613631 17.4744104,6.07968098 17.4249237,6.12827814 L14.3745053,9.12296143 L14.3745053,16.246242 C14.3745053,16.3152764 14.345277,16.3773406 14.299347,16.4224314 C14.2500492,16.4708286 14.1817358,16.5 14.1067188,16.5 L4.89328121,16.5 C4.81826422,16.5 4.74995083,16.4708286 4.70065297,16.4224314 C4.65472296,16.3773406 4.62549474,16.3152764 4.62549474,16.246242 L4.62549474,9.12296143 L1.57513012,6.12833103 C1.52558959,6.07968098 1.5,6.01613631 1.5,5.95216919 C1.5,5.88820208 1.52558959,5.82465741 1.5751183,5.77601897 L4.83222482,2.57767024 C4.88332074,2.52745208 4.95285726,2.5 5.02495659,2.5 Z" id="路径" stroke="#6B65D8" fill="#6B65D8" fill-rule="nonzero"></path>
            </g>
        </g>
    </g>
</svg>