<?xml version="1.0" encoding="UTF-8"?>
<svg width="17px" height="15px" viewBox="0 0 17 15" version="1.1" xmlns="http://www.w3.org/2000/svg" xmlns:xlink="http://www.w3.org/1999/xlink">
    <title>icon/皮肤</title>
    <g id="皮肤" stroke="none" stroke-width="1" fill="none" fill-rule="evenodd">
        <g id="皮肤-国庆" transform="translate(-1294.000000, -17.000000)">
            <g id="icon/皮肤" transform="translate(1293.000000, 15.000000)">
                <polygon id="路径" points="0 0 18 0 18 18 0 18"></polygon>
                <path d="M11.430983,4.18611423 L13.4318345,2.22106716 C13.5758469,2.07952871 13.7712658,2 13.9750434,2 C14.178821,2 14.37424,2.07952871 14.5182523,2.22106716 L17.7752025,5.4192623 C18.0749325,5.71360468 18.0749325,6.19073371 17.7752025,6.48507609 L14.8745053,9.33277376 L14.8745053,16.246242 C14.8745053,16.6625311 14.5307555,17 14.1067188,17 L4.89328121,17 C4.46924445,17 4.12549474,16.6625311 4.12549474,16.246242 L4.12549474,9.33277376 L1.22479748,6.48507609 C0.925067508,6.19073371 0.925067508,5.71360468 1.22479748,5.4192623 L4.48174766,2.22106716 C4.62576003,2.07952871 4.82117896,2 5.02495659,2 C5.22873422,2 5.42415314,2.07952871 5.56816551,2.22106716 L7.56901704,4.18611423 L11.430983,4.18611423 Z" id="路径" fill="#FFBD70" fill-rule="nonzero"></path>
            </g>
        </g>
    </g>
</svg>